<mxfile host="app.diagrams.net" modified="2022-04-04T07:16:19.409Z" agent="5.0 (X11)" etag="b8Bz8NHsyO4ft-gtQlHP" version="17.4.0" type="github" pages="2">
  <diagram id="x2hZyT3UO5VZtPUsWrCR" name="Server Side &amp; Client Side Rendering">
    <mxGraphModel dx="2248" dy="751" grid="1" gridSize="10" guides="1" tooltips="1" connect="1" arrows="1" fold="1" page="1" pageScale="1" pageWidth="850" pageHeight="1100" math="0" shadow="0">
      <root>
        <mxCell id="0" />
        <mxCell id="1" parent="0" />
        <mxCell id="lk4_Sp7F7PyYnjzS7CFI-1" value="" style="shape=image;verticalLabelPosition=bottom;labelBackgroundColor=default;verticalAlign=top;aspect=fixed;imageAspect=0;image=https://www.clariontech.com/hubfs/Server.vs.Client.png;" vertex="1" parent="1">
          <mxGeometry x="165" y="200" width="520" height="315" as="geometry" />
        </mxCell>
        <mxCell id="lk4_Sp7F7PyYnjzS7CFI-2" value="Server Side Rendering" style="text;html=1;strokeColor=none;fillColor=none;align=center;verticalAlign=middle;whiteSpace=wrap;rounded=0;fontFamily=Comfortaa;fontSource=https%3A%2F%2Ffonts.googleapis.com%2Fcss%3Ffamily%3DComfortaa;fontSize=35;fontStyle=1" vertex="1" parent="1">
          <mxGeometry x="-40" y="560" width="480" height="30" as="geometry" />
        </mxCell>
        <mxCell id="lk4_Sp7F7PyYnjzS7CFI-3" value="The render will do in the server, so the client just get it =&amp;gt; Better SEO" style="rounded=0;whiteSpace=wrap;html=1;fontFamily=Comfortaa;fontSource=https%3A%2F%2Ffonts.googleapis.com%2Fcss%3Ffamily%3DComfortaa;fontSize=25;fillColor=#d5e8d4;strokeColor=#82b366;" vertex="1" parent="1">
          <mxGeometry x="-55" y="610" width="510" height="90" as="geometry" />
        </mxCell>
        <mxCell id="lk4_Sp7F7PyYnjzS7CFI-4" value="Frequently reload the page" style="rounded=0;whiteSpace=wrap;html=1;fontFamily=Comfortaa;fontSource=https%3A%2F%2Ffonts.googleapis.com%2Fcss%3Ffamily%3DComfortaa;fontSize=25;fillColor=#f8cecc;strokeColor=#b85450;" vertex="1" parent="1">
          <mxGeometry x="-55" y="730" width="510" height="90" as="geometry" />
        </mxCell>
        <mxCell id="lk4_Sp7F7PyYnjzS7CFI-5" value="Client Side Rendering" style="text;html=1;strokeColor=none;fillColor=none;align=center;verticalAlign=middle;whiteSpace=wrap;rounded=0;fontFamily=Comfortaa;fontSource=https%3A%2F%2Ffonts.googleapis.com%2Fcss%3Ffamily%3DComfortaa;fontSize=35;fontStyle=1" vertex="1" parent="1">
          <mxGeometry x="540" y="560" width="480" height="30" as="geometry" />
        </mxCell>
        <mxCell id="lk4_Sp7F7PyYnjzS7CFI-6" value="The page is smooth and faster, don&#39;t need to load between route" style="rounded=0;whiteSpace=wrap;html=1;fontFamily=Comfortaa;fontSource=https%3A%2F%2Ffonts.googleapis.com%2Fcss%3Ffamily%3DComfortaa;fontSize=25;fillColor=#d5e8d4;strokeColor=#82b366;" vertex="1" parent="1">
          <mxGeometry x="540" y="610" width="510" height="90" as="geometry" />
        </mxCell>
        <mxCell id="lk4_Sp7F7PyYnjzS7CFI-7" value="The bundle is heavy, the initial load more time" style="rounded=0;whiteSpace=wrap;html=1;fontFamily=Comfortaa;fontSource=https%3A%2F%2Ffonts.googleapis.com%2Fcss%3Ffamily%3DComfortaa;fontSize=25;fillColor=#f8cecc;strokeColor=#b85450;" vertex="1" parent="1">
          <mxGeometry x="540" y="730" width="510" height="90" as="geometry" />
        </mxCell>
      </root>
    </mxGraphModel>
  </diagram>
  <diagram id="Sw-AHW7WOgtDQJ_tzpPI" name="Structure">
    <mxGraphModel dx="1398" dy="751" grid="1" gridSize="10" guides="1" tooltips="1" connect="1" arrows="1" fold="1" page="1" pageScale="1" pageWidth="850" pageHeight="1100" math="0" shadow="0">
      <root>
        <mxCell id="0" />
        <mxCell id="1" parent="0" />
        <mxCell id="8inW33pXJB7nRRpmtdub-1" value="" style="shape=image;verticalLabelPosition=bottom;labelBackgroundColor=default;verticalAlign=top;aspect=fixed;imageAspect=0;image=data:image/png,iVBORw0KGgoAAAANSUhEUgAAAhwAAAC/CAYAAAC16QUVAAAABHNCSVQICAgIfAhkiAAAABl0RVh0U29mdHdhcmUAZ25vbWUtc2NyZWVuc2hvdO8Dvz4AAAAtdEVYdENyZWF0aW9uIFRpbWUATW9uIDA0IEFwciAyMDIyIDAyOjE2OjExIFBNICswN0t3aUUAACAASURBVHic7L1ndxtZmuf5u2HgPQF6I8pQNuUys1RZtqu6e6Znzn6C/TTzZfbN7jl7zr7Zszs707vdU1mVTkpJKe9IihaEITwQiIh790UAICmTrkRmpnh/OiQlEoi4EWDm/eMx/0ecXDyplEKj0Wg0Gs0xQkofKRVwNCLAAHEkJ9JoNBqNRnN8sRSghEALD41Go9FojgFKIY4oqrEfC2GAOqqAikaj0Wg0mp8SIfhJNn3LM8IEGRwd4dBoNBqN5n1HKIlQPkoJlPCCfx+BArGMSAqpUyoajUaj0RwLDCUx8PGcDqrfA79/NIKDSJJAbBgorTk0Go1Go3m/UT4CD+lLpOdh+O6RnNbyrQhSmEgMdJRDo9FoNJr3HQ+hXKTpIEX3yHZ+qy9sfEyksHQdh0aj0Wg07zmWEkjAxUJgYhzR3m95mPjCxteCQ6PRaDSaY4BCIJHCQAgRtK0cQdeKoTAGp9doNBqNRvP+89Ps+AaIUWRDiw6NRqPRaI4LR2drDgzCG6+cXqPRaDQazfuK2Pf16EoprIMn1ZEOjUaj0Wjebw7u+UeFMQyoaJGh0Wg0Gs37T7DfCwLzrSOPcAzRXSoajUaj0bzf7BMaRxhtsL77IRrN4SPEm8WuUj/sv4Yfepw3Pf6HnlOj0Wg0381rRaMazc+KHxJ00wE6jUaj+dmiBYdGo9FoNJpDRwsO9BtjjUaj0WgOm2NUw/FteXnxxke9P0Lk761J+KXeiVevW/HLvRaNRqP5ZXOMBEfA0GlEDP6hlDgWbcEjhxUVXK1AoERQqfy6yFKjf/2i5usoUEIFhaCvFH4KoQbf2ic6fkGXptFoNL90joXg2B+/ME0T27YIWSZOv4/rSTw53HTVK49/fxAG2JaNbZoYAqRSuK6H50ukUsE2bBhYpkHIslBK4fkSz/ORvzA19uZ4FQOBufd38V6+0hqNRvPz5FgIDgChFAJFLGyRz2UZz+d4ubZGrdlBuhKp3jeX1b0rMVDYAiZyacayaaIhm063S7FcpVJrEUQ8FLZpkIxHmBzP47kutWaLcrWOp4bmcPs36J/nZr1fRAgGQxCHt0KxT1j+PNev0Wg07ytmZO6D/6KEgRIG7/P/hA0hsQzFxbOn+cMnv+JPv/81Mduk1+vRarZRUg4eeXDD+uWjsIUiHjL57cfX+Oc//pY//Po6i3Mz9Ho9dspVPLePbcDJ+Rl+/+sP+U//+HuuXjhDNpOm3e7QareR0uegFe67vTtv88/4YQcJBMcwSSZUkEJS+5Jmw58KBiOZNRqN5phh4mPiI/tdhNvFlA4m8ruf+HdyfCIcKEwkiYjFdCHNB6cXSIcNQrYNmDxfXafvS5RSgwqH94EgJmEgCRsG8+M5riwtcmJmjM2tNM+ePeO2bdJDEjENFqYKfHLtIh9ePo/yXVKJGNVKlVKphOe6AEjUL6KuwxAiSJ2FbAzDwPclrufRd12E3JdX0Wg0Gs2RcGwEhwJ8oFprsF3codVqcfbMaUw7gjAM2o1dKvUWnb6PRCB/gsE274bXk0IChSEgZJvEIzaJKCRjYcK2hWkIhADTskhn0kxNTZNKWRjKYnx8nMnJSWw7BKKHUvuP/kP7eb47WXXwiD/UdlcFcwGEwhCKkCnIZ5NMTYwTiYTodruUq3W2ihX6Sg6uRadWNBqN5qg4NoJDIvAVrKxtYCgP4fb4l3/6Myfnp4nYN5D9Lp9+cZu1YgXHkwRxgV/OZiREkCxQg8/DwgW172cGEgOFJcBQgaxCBWE03/dpNNqUyhVOzI6BhN3dOsXiDv1+f3C4ffdjkL5Qai/eIfjuQYBi9Gm/hfhgza89YO+Y+1+J0fHFwW/szT9UJGMRPrx8nn/+xz8xls1Q3N7is1vf8F//9S/4HQdPHn74UKPRaDR7HBvBAQKJQafvsbFV5PMvbxINmXz84XWmJgv8y59/j2WH+PzWPZ6urNHzFPInd+X49rf3BwskB+EHoUab9N5RhiWfA9GhGIkPCLRJ3/V4sbzCf//X/4+dzQ2k3+fZyy0ePn5CzwkEhxJ7R9w7b3CAQNS8tsADlzJqRebgvBIh1PAKDjw1EEsgXm82GRzj1fUMUkhKErYE+XScxdkJxsfixEyP5eUkYdvAFCAJROj7UySs0Wg0P2+OjeAYlgxKBY1un+fr2xiff40SJp98fI2TJxf5neMipI/rdHlZrNBxFb56tTvjaFc8/PtwazQGH8IQCBFEGJQEJdW+bTdg+ByxL9rxpgiEAjyp2Nwp0+12WVvfRPkelUab7UqNvid5VcYINai5HEQ4BGqQngnulVQKOVqTGAmN4IT7O2iCY6lhPEkFKR4hgqiHgcIwBMbwWpXCH9TZSPYd/8D1+lhCErUFqWiIZAQSYZuIbWAhMZQfdC2J/Z1Jv5xolkaj0fwSOTaCY7gdSQGeMmm7kkfL60gp8b0+Y2NjnDu9iC18XM+l/elX+PUOPddD/oSiYxg5EIBlCGzTIGSa2HYIwzDwPJ++5+G6PlIpvMGGvN+ya9iMMRIb4k1yxqTnSkq7LXbrLYRSeAhcKZDK2Cdi9jAAwzQwDUHIMgnbFpZlohR4nofTd3GlxJdq5OUxysyoYW2JgbVPqIyEkwDTtLDN4Ni2bSOlj+u6OK6HpxSeD76S+9JGBGsRBmFTEDIUNj6WsrHwsZGEDIjYJgiJqwS+3O/AotFoNJrD4hgJjgClBD4gMcGXrGxsw2dfoqTkH37/G+amxvmP//hHjFCUv3x5m9W1TbquHGzSh9MS+oZVjj4EQQFkMhZlbmaK2alJJgt5spksth2i1WqzW6+zW2uwvrnJZrFEtd7AlyrwoBjUWbx69P1fAQxDkM/nmZ+eJp/LYgCl3TrLL9ep1Oooub+iRWIIQSwSYjyf48TcLNOT44xlM8RjMXxf0mq1KJUrrG9ts7a5Tam6S9/1kGIwvkeAoWAin2V2coKpiQmk9CkWi5TKZfqux+KJE0xPTlDIZ0knkziOQ6PRoFiq8HJzk43tHWqNJt7gamKREONjOS6eXmAyE+X8qRMkIzZhAzLxCGdOzPGn396g0fOpNDps7FR4trw6iGJpNBqN5jA5ZoJjfwhd4StBs+exul1Ffvk1ph3i19cvMzW7wD/89gbK97FQPF/bxPGDd+lHVUgqBumERCTEiZkJLpxZ5PKFc0wVxsilk8TjcUzLwun1aXU6tNod1je3efD0BfeevGD55TqO5+PL73DUFIExmGXAzPgYn3z4AedPL2IoyYPnq/Q6bZrNBtKXKMNAKIllwNTEGGdPnuDqxbOcmJ0iP5YlGY8RCYeQUtHr9ag322yXqzx++oJvHj3l4bNlWr0+vgySJaZQzBayfHL1PNeufIDn9nn69DGbm1tEY3GWls4wNTFOJpUkFo3guX06nS7VRpP1rR1uffOAe4+fsbZVwpOKRMTm1Nwk//KPf2A8GWZ+PE0qahIyIJuIcv7UPIlEgp5vsFqscvPuI1ZXV1CSkfGbRqPRaA6HYyY4hgTpFV+AUia1no/zcgvL/AoTye+icU4vzOB+dBmUpO+5bO7s0u17R7QxCUwhiNgmJ+dn+OTaJX738WUunFkkEbGwB0uQUoGIA1kkUDs9y4m5KcZyGZT0WN8u0+z2vzUgE7hxKiyhyKdjnD81y40rZzCVAuVz9+432AL6SCQCyxBMjKW5fukcf7hxnY8unSWfjhKyjaAWQ0kMYSBEAp88nf4Cp+cmKeQz+NLj6eoGzWYHicJCUkjHOL84xW+uL+D1YTplUFmcIDeWZ3JykkQsgmUITAFCxBAiQ19OsdtaJJ9NELJNWu0OtWabiCXIZ2JcOD1PIREhEzGImGAKsEIm0/k0mWScvrCJxqJsbm1jCYknDAblKBqNRqM5JI6R4Hilh5IgvSIxUErR8yQPn63g9x16fZ//6T//CxfOnyWWTGNYFv/t3z5lu1JHenLQ3XAYPh1BGkQAEUswlozyT7//NX/6zcecP5kjbIHvQq/n0W53aHe62KEQ8WiMeDzMRD5KJneaickJhID/9m9/o7dRxFB7Raevn3F0MzCQWEIRNsFUCtsIoh8GEqEkpjCJhgw+vHye//Tn3/HJR+dIhkH40O1JWu0W7XabkG0Tj8VIJGOk4vDBuSkyuRyhcJj/7f/4P3nebtH3g74hUyhCJsRswICLS4v46iRWWNDtQafdodfrIVAkYlHi0QjRqEEkYvPbDy9jmBab2yUePHmG5/Zpttps75QQTgwzHcNKJzEEeL5Pu+NQrrfoSZNSpUqj2QpqS3RKRaPRaA6dYyQ4hux3dtjrcvAx6CuTtVKDz27dxTAt/vCbG0yMj/PPf/gEv9/js9v3Wd4o0XMlkndfSBqkUcAQirF0kk+uXeRXl8+xMJXDFtBtw6NnL3jw+BnPXyzT7vawQ2GmCmOcXzrF5UsXSKcjzOSS/MON62xtbdPsdKlVdhCY33I/9uaOGCIwCTNQCBE0j4LEQBKLhjg1N8XvPr7KxZMzxGzou/D06SoPHj/l6fMVWu02tmUxMV7g/NkzXDp3lnw2xlgqzIeXznH/3j0atTrblcZAtkmEUJgCDAMsy6DZ8yhutvjq9l1erKxRrTUQSlLIpTm/dIqrVz6gkEuQiRkszkzw4eXzbGxuUKvVePj0Bf/L//q/MzuW5NdXzvGbX31MKhGlWmtw59Ez/vLF19R7PqV6l/WdGq4EX6sNjUajOXSOoeCAg5GJoP3Sx0RhUOv5qI0dkDcJWyYff3iV2ZlJ/vjJdSQCTz3gxctNGBSfvvuVSSIhi5nxLDeuXuDk1BjpKDitPo+eveDfPrvJrQdPWd/cxnF9DNOikI6ztr6OaRhcOneGXDrO0vwk50/Ns7K+TaOy/XqEQwyvfRip2StSDezQh1GRQQ+LUORSCS6fX+L8qXmmMlE8R7Gyvsn/+Nvn3Lz7kJXNHZy+h2kIsukUq+tbeE6P6xfOkBvPszCV59LSIpub21RqDZCDFQzMxwzA7ffZKZb49Ks7fPrVHVbXt6l3+gglycTDbJcqAPzm4ytkk1EKmRinT8yQTcbY3d1lp9qg23lIOZ9kaizN1WseMQXtbp+1rRJffvOQStOh1Vd0+gpPiSOYIKDRaDSaYyo4Xmfo6+BJaHYdnrxYxTJE0L2RS/PBhQt0XINyo8fL9U2k3OdMof4ei+z9JloKpE8immBmcoKL55ZIJ+J4HhQru/zl85v821+/5Ol6Ecf1R9Zd5XKFre0iyXSWUDjKxaWTCNOmUJggm80M/C1+6Ar3CxCFbUI+m+TKpXNMFHLYlkm5Uufm7bv8+9++5NHzVTquQgkToSQ7lV22tzYIGYp0PEpqLE8iBksnT/Dw6Qr3n67gef6oZVcOIg31VofHz1f5v/77v/NoZYN6q4eHiUCxU/LoOH0iIZuzpxdJxSJEIxEm8jnSyTiWbdHpetT6PRKWotnp4fmBl4rrS9q9PpXdJjv1Lo4v8IX93g8t1Gg0mp8LWnAAe+kVIxAdSmBgsLJZpPD4KWdPzfNxYYzpyQlmp8axDHClQinJu9ysBIFJVyIaZXwsy8RYjpAlaLQdVta3+eLre2yUa3R9E2lYA38QQPnsdjy+uPOQWCyBkhI7EqVUqdJ3HIx9fSo/pPJkz8dDEQ1b5LNJTsxPEYvYeK7D9k6Jv35xi7XtMh1X4gkLhYEQAl9Cs9Pn3qOnnDu9yMnTZ8jn44ylk4xl08SjYZpNZ69SU4BUsF2u8uj5Ck9WN2k6CtcI42MEcShlUm05PF/bYrfRZnbCx7Zs0ok4qXiUkGUj8TGEiRImIzN3AQgj+J5howwPJRX74zgajUajOVyOueB4desdmIALAwyDmbkFls6eY3Z2Dt/z2SluU9zeQvo+AmP0nHcjOobW44pMMkEhlyUatjEF1OtNVta32Nip0nJ8XKygcFXse5aSrG5V+H8//YInjx9jWBY7u002S7W/a0MdRjhClkE8apGMhYPIjxLE43FOLy0RykzQ6rn4g01+6DwawiMfD1GYnMa0g2tJJ+OMZVIkEzGazToMqmGC+w6trkO10aHdl/Sx8IXAGwoOBI40aTs+nZ6L60nMCIRDNiHLxDSMUUxGIpBCoISxL1ZjEMwMNlFIlPilDujTaDSaXx7HXHDsZ2CjLSARspgpZLlx7SLXLl8klUrzbPklt+894PnKGt7Qj+PVoSXvYA1CQDweJZVKYZnB4RutFtulMvVWm76nUFgH3pkrYQTpiI7Dk5dbrK5vgghcQvsSbAyk+PEbq0Bh2xbRcJhwyA4cT4VJIZvmNx9d41LPo++rQTRBjNI3Fj5RUzE/mSceDSEERGMxEokksVhs31a/54/iuB6O0w9afl8TA0HaS6pg1LwvJSZgGgamYYw6fN70kqhv+dBoNBrN4aMFxwABGAKiIZupQprffHyZP/z6OvNzc+zWdvn3Tz/jb1/e4cXaNr4abKzvGIXCEIJIOEQsGsEwg2Guna5DvdnCcf3BuY0DG2UQ7QgsyH2pcOTweME7e8NQ7JWA/rhNNmRZREM2tmkGo+4ti3zWIpE6jauGcYpX3EsJfsHsQQeK7wMILMsiZIcQwz/7lIIvwZNynyfG3n0edhSpgSX5mx7Dvm+96XqHkRQ1GOD2LUfQaDQazTvkmAsONWzWwFSB/8TJuUl++9EV/uOff0chk2BtfZ2/fPo3/sffvmCtVMPxFEoYgX/Dt72l/nvWJATCOLjR7s1zebXmYFh/EogONUhP7G/6PThZ5ccjhMAYXLLn+3Qcn2qzg+Ozb1bK3vqCCS1gogZrg0arw061RqfnBBNo1d46R72532IhP5yzEoiUt1/T216SoW+bjmxoNBrN0XLMBcdgUxQQMuH0/BS/vX6R3/36IyYKBVZePOezm7f59Ks7rO3UaDkeHuYocnAYu5YC+n2XnuMgZeCSGQmHScTj2JaJkGowXvWgkdmw1sIUYA5G1MtB5CGoaDDecsZvX8vww/P9YBibJ/EldPoOKxs7/OXL21SbPfqeP0hKHWRYVTEUPL2+y8rGNjvVOp5ilIKBoX4bCo63iAm1zxH077AG3d8MrNFoNJrD51gLjmEaJRYJMT2W4pPrl/jN9QucmC6ws73FF1/d4rObd3n6cpueDx7moBX11Q3xHQXkBwKh3enQaLbwJYQsSCTiFMbGiMeidPwejr8XQwg+B5t6NBwil06QScYxDINuz6HWaNFr7f74NQ1CQO6gtqLvBvNZfNenVG3w2c1vWNmu0Ok6wUC8AxGOQETYtoUdshGGief5tDpdGq0eqDdEXg4ELt52X/cmvP4QzfGmh+pUikaj0RwNx1Bw7EUETBQRE6ZyKX5340P+w59/z9xElp1Kjf/6r//Gp59/xYuNIj3fGIiNVy3N3+12pRBIBfVmi0qlSr/vEbUssukU8zNTFLJpml2Xrh94cAzPbyiJaSjGs3E+vHKRy+fPEApFeLm1w+1vHvL4fu0NsYfvu6bgw/UlvX4wcl4qCIVCRKIRlFLUGw12622ksA4ICAOFZQryuQyZdJJwJILjOLieh/FKDcXrvNt2Y5QEJQObdxU4ugatuO+qy0ij0Wg038YxFBwicGcQipABi7MT/Pr6B/znf/ojk/kca2ur/PtnN/nLF7dYL9VxpIH/RrHx7tcVvL03aHd6VKo1qrU68XCOVCLMybkprl8+T6t3h1axiuf7o84TU0hitsHVC2f4h19f4+r5MwjT5ss7D1heXgHfQ2B/V7LizQy8Ppy+x26jzdZ2ialcmkQsxEShwEcfXaNYa9Jsd4OJumLP88M0BFPjOX5740OuX7tGMpmgVCrz+a27/PWLr2m73UEURBxSekMwLPWwLIuQZQbW7UoOQiND0aZFh0aj0Rw2x05wCAGmEIRtk8XZSX5z/SK/vX6J2fEsq6urfPXlV3z25de83C7T8gQ+VuDnMKxWZP/Xd7KiA4sTmLQ7Pba2izx9+oxc/AKZbJLpQo7f3/iIvjQIPV5ma6eMKyVCGGTiIeYm8/zuV1e4cvYEc/k43b6P267Ta9ZB+ghl/fhVK+i7PuVqnfuPnrA4nScbzZHLpvno+lV26i3MSIy1YpVe3wOlCIVCFNJxfnXlPH+4cZ0LF84RCVncu+cQtUB6/UOVb0oqpJRIGcRR4tEIY9kcU+Pj9GWFVs/F8aHX93Qdh0aj0RwB77ngONgQKQATiIdMJscy/ObDy/zuxkcszk5QLFX59PNbfP7lbR4vr9GVJr5hD4oaj+bd77DTpOO4rG+X+OL2faanJ4nEkyRTIa5fuYQRCpHP53jyfJmu42BaNhNjac6dXuRXVy8xVUjheYrt0i7Pll+yVarsi84MzqMOdpPsW8Cet8e+eIjCwJVQ2m1w65sHXDizSDYZI5mNc+70HK77KwqZFA+eLlNrNJFSkUwkmJ+Z4Hc3PuTcqQVSaYtuD4qlCsVShW7P2bceta/uY2Sf+p13a8he7Gm4ZgNPKrquj+O4oCARj7I4O8mNK+fJ57Yp7rYo1lqsb+3gD31VNBqNRnNovOeCY4ga1WyEDIPJfIZPrn/Av/zp90xPjlMuFfm//59/5dMvvmZtq4wjzWCYm9qfRjlYqHk4CKRSeApKtSZ/u3mHEwvzJBJJTs7lyCYNfnXlHEunFqjVm7TaHSw7RCoRZSydJBEPXs5ipcUXN+9w/9FTdsrVkeA4YHilhl9f2diHXSCjbpDhgHqDWrvH/SfP+fzWXTLJKJdSZ4iH4fr5U5yan+Efak3K1V2UUsTjCSYKObKpKJEQtLrwcm2br+/eY2V1Dd8PPEdGQmjYVquGjb3fwrCddnARw/UKxMDnFHp9n0a7R73ZRqkssbDJuVML5MdylOodHq9u8dntBxSL/4qSe229Go1GozkcjoHg2CsSNQScWJjlt9c/4J9+/yvGc2lWll/w5Vc3+fSzL9msNGi54KnAUvvgJnT474AVjNI3nb7PVrnOf/8fn+H02nSuX+LkiTlCdoh8MkomFsYbuHFahsAyBZ1mj5WNIre/ech/+/e/8XKzSM/1MTGQBGZZrq9w/WBQmhpEboYRBqnAk8EAO6XAl0OhYiAx8aWg0enzt5t3MPDp9HpcXDpJMhomm4iQiIaZzGdAKUzTxLJMkJLtzTIPn6/x1y9uc+/BY3brTeTA9Cs4J7iD0bu+r0aeI69rgKAgQwmBv+95vj80NtvzKen1PVbXt/j67j0mMgmmsglClkUhmyKZTOF48Gx1Y9RCrNFoNJrD5RgIjgAhBEIocrkcM3NzFCYmWdvc5LObd/jsq7u82CrR9w089aYC0SMsKhxstq6EpuNx/9kqfc+l2mhx+WKNQn6MdDJJNBrDMC2cfp9et0e322Fja5uHT5f55uET7j97GfiGqCDF4PiwVa7xeHmddqdHubLLzm4Dd2BJ7ilFtdnl+VqRZHIVU0mWN3eot3uBlbswkErg+LC8UQLxkEbXZatcZ3ZqnGwmSzQWxbZDSClxnB6tdptavc7K6gr3Hr/gzv0nFCt1On2JFIGfSbXV48VGifyjIkLA840S1WZ3NAn31aSYL6Ht+LxY3yFshwhFY1R261SaQbuwP3jd+r5kvVjhs1v3iITDnJqdIpXJBOsTFqVak0a7i1R6eJtGo9EcBcdDcAy0ghACpSTtToeX65t8/tnf+OL2PZ6ubuD4Bv4gEqDEG/whjojh5ieFiYtBueXQerTM6laR+89fsjg3w/REgWwmhx0K0Wq32a01qO7WeL68yurGNsVqHcf1A7tzERh+dT3Foxcv6XuSbDJOq93h+coGPcdDYuAqycZOhc9ufcPmdgkDxWapynalRl+qgUAw8BS0XMWjlztsVeo8ev6SUyfmmJ2eJJ/LEovFcF2PRrNJqVJls7jD8uoa69slml03sGbHQikwEGzsVPnyziN2qm2EIdjeLrK+XcFDjOzSg/siBg6nit1Gh89ufsPq6hpWKEy76/Byu0Lb8QdiEcCkXG/z9YMn7NYanJqfYXy8QDweR2KwsbPLsxereFKNIj0ajUajOTxE5pP/WfnCwhcm/Ag3yp83o+R+UImgfNLJOJP5LBO5NBvr65TqbVqOjz9okRzVNhxqD8X3W/teQsPHMhQR2yQWsoiFbcLhCKZh4roeXadPr+/iuD6Or3DlIGUyONJgSDsR2yJsmVhCIaWi6yl6fpA+EUhsyyBsW9iGQChFXyp6ro/rS6Q6OJhNCAgZipAliFgG0bBFNBwiZFv4UuL0XTo9B8eTOJ7E9RWeEoF/yCCFYyhJ2Ayeb9sWIPB9H8eT9Dw5iKocrJ4RgC0kUdskZALCCK6l7+EqRk6wYnDNlggs6yOWSShkY1kmCkHPlXQcj27fCybL7vvdf62uRaPRaN4jbNUnpPp4zQqiUyHk1rGVe+jnPR6Cg2Eng8QyDCIhk4ht0+126PvgDbb14VN+LoJjT3RI9oarB229hmFgGAIpFf7gQ4rho419kYFB/crA7Gp4LDVMkwgT2KtxEQNjLGCwEQf240EUYBgqGvaCBNUdQsnAUt0M1qRUsB5Pyn2rH46KHxaJBtdnotgbIB9EMaQwRgPyDsxaGazAUHIQi5IMazaCYxujiM6wRNZQe3fEEGLgYirwVfAxjGYd7OLRgkOj0by//FSC43ikVBhu3wZ9CW7Pp9X12F+EGPQ4/Pw2mmGMA4KCUn8wSgWPkQf40CJkv8h49RhSDMWHCSiUUAc2WkEgFATiwHGHbqBCELQHi0AA7JdCYOKhwBfg71vDcE0D0SD2beoMxISPwBfD6MXQAEwEE10DacT+WhoF+MIYGIyZ+66RfY8To38HxzbxASHUgcfvTfzVKRWNRqM5bI6B4HjdSXK42YyaXVXwzjd4F783aOyn5+Da1aDAMXiTfvB6vgs1+Py6e8XBY6jXNu29n+/NWdsTJIrBvdsrlBlFCIYiZnSMweL3NxnvCRLePHz3wDf2CQ+1J0aC12547NdFxOhcr92o8aeDdgAAHqJJREFUn8vrrNFoNO8/x0BwwNs2lgMb6mub2s+F19fzYwWReoP4+iHHfZuwOfD9AwLjDc9QHBA9o7/tj9a88rO3MxRiP+Q5o2WAUqPzajQajeZwec8Fxy95Mzmstf9U9+S7zvtD1vXDr0EdVDoajUajOWLetypRjebNaLGh0Wg0PylacGg0Go1Gozl0tODQaDQajUZz6GjBoflZ8J0D2/7OYw//HOV5NRqNRrOHFhyanwfqLZv/D9EDb3z6yMntwM9HAuQt59VCRKPRaN4tFuxZRuv/xWp+Ut4mOn7IId7mEvpqY8t+v/RXzjs6xi+5yUmj0Wh+Zlj6/6ma44B4VT182y++/o9Co9Fo3jnWa7FmjeYY8JoA+Z4/02g0Gs2Pw9obXaVQo8kZGo1Go9Fo3keCwZeSow42WKOJpCqYFqrRaDQajeZ9JshsqNHU7aPBMkazP2UwDVSj0Wg0Gs17i6GGQuMNLXyHiGW5HQxhYmJqvaHRaDQazXuOpTxM5aJ8B5SPOKLMikWvQWDHIXSxnEaj0Wg07zkKDyU9hNtFSA9xVBEO4bQQgKE9wDQajUajee8xlAR8DK+PUEcoOAy/N/A+0tENjUaj0Wjed4aNIkp5oOTRCQ5budrGWaPRaDSaY4VAKv9I7TAsA5+3uUFrNBqNRqN5/1CIILKhjq5LRRduaDQajUZzzBA/gcu4FhwajUaj0RxDjqp2Y4gWHBqNRqPRaA6dfYJDd6loNBqNRqM5HIyDQkOLDo1Go9FoNO8e42DRiG5X0Wg0Go1G8+7Zl1LRYkOj0Wg0Gs3hoItGNRqNRqPRHDpacGg0Go1Gozl0tODQaDQajUZz6GjBodFoNBqN5tDRgkOj0Wg0Gs2hY/3UC/gpEKNPAXp4nUaj0Wg0h8uxExyGEBimgWma+L6P9CWgdFOwRqPRaDSHyLFLqdghm3Q6w/T0DNFoFMM0tcGqRqPRaDSHzLGJcAgBQghmZ2dZWlpifm6eh48e8uL5C3ZKO7iuC0rbn2k0Go1GcxgcG8EBgeBIJBLMTM9w/sJ5orEolmUhpWRnZwcpJSidXtFoNBqN5l1zrASHUtBut6k3Gniex9LSEqZh4vuSZqtJr9fD83yEFh1/F8MMlb6HGo1GoxliZrPZ//JTL+IoEARplV63R6vdotvtkctlGRsbI5vNIKWk0+nQ7zso9fPKrQTpoLd//FyOO7zHwhCIwQHexTq/9/n3needXs/+j3e6Yo1Go/npUEodaZfmsREcQzzfw3Ec2u02lmmRSCQZG8uRyWRwXZdet0e70w5Ex8+E/ZulYRgYhollmqNN/ccu1TAEpmliWRamaWIYBiC+p+B6/QGCYFc2B11ApmkCIqiNeW2R33frftNC3vRchRCB0Nm7HhPxd1wPiIHQMEb3afha/Ix+PTQajeZHcdSC41ilVCC4wZ1Ol82NDW7bFgi4cOEii4uL9Pt9lFI4fYdarYbn+T9JTcfQJ0SpQBRYlkU4HCYSiRAKhQmFQliWSb/v0u87OI6D03Nw+g6+7w+u85Vjjt75C0zTIhqNEIkMPsIRhCHwPJ9+36Hb7dHrdnH6Dp7nvVZMawhBOBIlGo1gmiae5+G6Lr7vE4/HicVihEIhQNBo1IOCXASWZQb31+nT63XxPO+tv+wCCIVDRMKRwbGg7/aDa3UclBpEIAyBYRij64hEIkSiEQzDREqfft+l1+vS7XZxnD6e544EiGKvmDgUihCJhEc1PcNrikaiRGNRwuHgZ/V6g2azQbfbfeN91mg0Gs2bOTaCYxDgD74qRd/ts/xiGdd16ff7/Okf/sS5s+cIhUJIKbl9+zbtdgff944+vSL2vlimRSaTYXJykoWFBTKZDMlkknA4HNSj1OuUSiXW19fZ3t6m0+mMRMfBwwXXblk2yWSChYUFpqdnGB8vkMlkMAwDx3FoNBqUS2WWV5bZ2tqm0WggpT+6BwIwLZOZmWkWFxeJx+PU6w1KpRKtVpOlpbNMT0+RTqcBePDgAd1ul0g4QiKZwPM8tra2WFleYbdWQyn51nuQzWZZWFhgcnISYHSd6+sbQPA80zSJxWKD65lmfHycbDaLbdu4rker1aRSqbC6usrm5ia7u7t4no9CBoKFQNBNTk6wsHCCdDqF4zhUKhUqlQonFk4wNT1FNpslFApx//59Hj58yMb6xmCdR/sOQaPRaH6pHBvBoQCx3+BLgef77OzscO/ePSzL4oNLH1AojPOrX/0KgMePH1Mul4MN/IjLOgzDJBSyOXv2LEtLZ1lcPEE+nycUCmPb1iiy0O/36XQ6VCoVHjx4wOPHj9nY2MB1PfavWACpdIr5+XkuXbo0Ei/RaBTbthFCIKXEdV0cx+Hs9lmeP3/OgwcPWVt7ieM4g+MEG/TMzAwff/QxY/kxqtUq1WoVx3E4deoUiUQCy7RwPZfd6i6e75HP51lYWMDzfJ48eUzf6dNsNXFd+cZojGVanDlzhqtXr7KwsADAnTt3qNfro8fF43FmZ2e5ePEiJ0+eJJfLEYvFRtejlML3fJy+w7lz51heXuHBg/ssL6/Q7XSQak+0TExMcO3aVWamZ+j2ulSrVRqNBgvzCySSSUIhG1QgelZWVg7vhddoNJr3lGMjOGAv/L2XslB0O122trZGNQZnz55lamqKDz/8ECEET548oVQqDUTH4b+bHYb4Y7Eo09PTXLt2jTNnzgzERohutzvopvGw7RDxeJxMOkM+nycajWKaFp7ns7m5gZTBYg3DJBqNcObMGT744APOnztPJpvBtmykkkGKQiosywrM0AyDVDJFKpUiFovheS7FYjFIIwgwhEEsFmMsP8b4+DiJRIJ8Po/vS3K57Ei80APDNPAcD6UU+bE8CkW302Fzc5PlleUgZcPefRUiEADRWJTZ2Vnm5uYZHx/HcRx8P1irEBAKRThxYpEPPrjEBx98wNjYGOFwGKUUfaePL31M0yQSiZC20qRTaVKpFPF4DN/3WV9bp9VugQrudzQSJZfLMT4xjud55HI5HMchnU5jGAZKKVzXw7ZtDMM83F8CjUajeQ85VoJjxKjmUCEVdDtdVldXR6Lj+rXrnDl9Jtg0gX6/T6PRwBtEDQ5LcwxTH4ZhkE6luXDhAhcvXqRQGMf3farVXTY3NyiXy3S7XRKJBNPT00xMTJJOpzh16hSe59Fut9jZKQ5qJBShkM3k5CSXL1/m8uXLjI2N4bouzVaTer3O7u4uvi+JRiOk0+lR5GNhYYFEPEG1Ut1XO6EGqxwWrCpisRjRSBTP92i32rQ7bXq9Ho7jUC6VqdVreJ7HpUuXCIfDpDNpZmdnicViOM6gTmQfth24wY6Pj5NMJvB9n3q9QbG4ze5uDcMwGBvLcfHiRa5du8bU1DRS+qMU0+7uLm7fJRQOkUqlyGazxGIxZmZmSCZT1Ot1ut0u3V4X3zuYflIKQqEQtm0jfUmr3abdbtHr9XD77iCS09Nm+BqNRvMDOZaCY3+UQohg6/B9n/X19dG72Rs3fs3i4iKWZaGU4u7duzSbzVF65TAJhUJkcznOnDlDMpkEFLu7u3z++ec8fPiA7e1t+v0+0UiU06dPc/nKZa5duz4QFlOcPHmSO3fu0G63kVIRj8dHaYdMJjsQL1UePHjIo0eP2NraHAmHqakprl29xsKJhUB8ZLNcuHCBcqXM7u7uKLWCCITRsDPEkx71ep1bt75mZWWFWm0Xz/Oo1+ogQEpFvV4nn8+TiAcRkUwmQ6vVHqR/9giHw0xMjDM2NkYsFqPf71Mq7QyEVodoNMrS0hJnzpxmYnwCgGazyaNHj7h//z7r6+v4nk8oHKJQKHDlyhXOnDlDLpcjkYhz9uxZdnaC47Vb7QPnHnal+L5Lo9nk3r1veP78OeVyObieep1arabrNjQajeYHciwFxwFUELMQCFzXo1gscvfuN0ip+ODSJSYnJrlx48aB9MqbOjfe0VIQKGzLJh6Pk81msSyLfr9PpVLm4YMHbGxu0Gq1kFLS7fZ4+uwZpmWSy+WYnJxCCAbdJ1E6nS6RiMV4YZxTp06RyWRRStFsNrh16xb37t1jfX2dbreLUmBZFru7uzSbTX4rf8uZM2eIxWLML8yz8HKBYrHIxsbGwXf3CqRSVMoV7j+4z5dffkG5XKbXc1Aq6PYwTZNyucza2hrxeIJEIk4mk2FiYoJqtUq32wm6TgSYhkk8HhS1JhIJDGHQ7XRZXl6hVqsBkMlkWVpaolAogIBOp83t27e5e/cuy8srtNstlFKYhkm1Wh3dr/Pnz5NKpZiammJ+fp6NjU1arRevvw5KUq/XefLkCZ9//jnbW9t0uh2klPi+/1pERqPRaDTfzbEXHAoQCpRQoBTtdpuNjXU8z8W2Lc6fP8/szCz9K0HLrO/7lEqlYNM9hHe5SgWtnpZlYls2Qhgo5Qetmr4fTLiVcrT5VasVXrx4QSqVolQqYQiDre0tfN9DKUkkEqEwXmBycpJoNILj9CgWizx8+JCVlRWajebo3I6AXq9Lp9NhemqasbEx4vEEmUyGQqFAOp0edIjs3TxFcE8qlQpPnjxhbW2NbqeLVIrhDTINk3q9zsrKCnNzcySTycBifmaG9bV1arXaqLPGsixSqSRzc3NEozF86dNoNnj58iXNZpNQKEShkGd6epp4PI7rupTLZR4+fMjz58/Z3d0d1a4IAb1ej06nQ6EQREzSqTSJRJLx8XEKhTwrK8uv3H+FlJLd3V2ePHkS3KNmc5ReC9D2XxqNRvNDOfaCAwbb4kA8BJGDLi9frmFZQbfDxx9/zNLZJVzPpd1uUy6XD80YTADSD7pFek4PpSShUIhMJsvp06eQMuis6XV7gfhQikqlwldffUUsFscwBL2eQ6vVwvN8otEoY2NjJJPJgY9EnWKxSK1WQ0pFNBZ9bQ2u645SKHNzc1iWNfDXiHNAZYm9x9fqNYrFIq7rBhEjAUoFD5BK0um0WV1d5fLlKxQKBcLhCHNzczx+9HggkII5NuFwmEwmy+TkJOFwiF6vR7VaZWtri06nSyYzrO1IYds27VabcqlMuVwOfDOi0X2vTWDcJaWkUilTqVQ4ffo0hiFIpVLkcrlRWmg/vu9Tq9V4+fIlvV5vIGC0yNBoNJq/By043oKUPtvbWzx/HoTgz587T6FQoFAYxzQtlHIPR3QIcPoOu9Vd1tfXyeVypFIpxscL/PGPf+TkyZNsbW5R3ClSLBZpNBp0Ot1RseTQ1dPzg7B/NBolnc5gmRYCgW3bZLNZPvzwQzqdzhuvQSnF5OQkyWQq6OIwgi6ORDweHGffBi2EoN/vj7pnhtGFV+n3+2xvb1MqlZiamiSZTDIxMcFYfoxYLI7j9AFIZ9JMT02Ry+VGkZHNzU1qtRqu6xKJhMlkMoTDYQxhYFkWmWyWa1evcerUqdeuZ9geG0Q0CkDg1hqNRonH4wN31YNIKXH7bpBqesv1aDQajeaHoQXHWxDCGHVKZLM5pJK0Wi1arSZKvu4d8U7OOfjseR7V3SrffPMNmXSGhRMnSMTj5PMFotGgXbbRCDpMmo0Gu7VdyuUyxWJxVLMwdCkNhULEYzGEEQwCiUZjzM7ODopH31yLoBREImESicRoLko0FiORTGBaQ8GhRpu7kkFaJUiLvPnGeJ5Hs9mkWNymVgvSKslkkkKhQCaTplbbRRjmqDU1HA4jpaRarbKxvoHj9JBSYhgGoVAosE0XglA4xPh4gXDoKn23f+Bu7ndsHV7PMKJh2/bIwfTV6IVSCqkk0pe6G0Wj0WjeEVpw7GPogWHbNqlUmqWlJc4unSWbzbCzs8OLFy/Y3NzEl2/fWP8ehkWjUgZdF0+ePCWVStHr9ZiemSaRSBCJRIjH44yPTyClT6/Xo9lsUamUWXu5xvLKMi9fvqRcLo9MuuyQPRAJAtuySCQSr6Qe3nI/EPR6PYQQ+L6HIQwM4/XUwvAoIwHyymGVCqIGjuOwtbVFuVxmenqacChMoTBOPp9nbW0N27YZGxujUChgmibdbpdSqcTW1tbIr0MMumMMEaRLhtGKYTfR97kegF7PGbQ577+C/WtWWmxoNBrNO0QLjlcwTZNkMsn58+f4+OOPmJubp9fr8vWtr7l95zbr6+tvTRu8C4JuDYXbd6lUyvz1r39ldfUlp06d5OTJk0xMTJBKpYhEItiWTTqVJpPJMj8/x5nTZ3jy9Am3bt3i888+H6VV9h2dvtunXq/T6XSQUn3vKarb29vs1nbxfR/zFeOr73MMNUj1bG1tUSwWcRyHWCzGeKHA+Pg44VCYaCxKIV8gn88jhKBWC+pCypXyW4/rez6tdivwSfH87309pVKJ6m71ZzWkT6PRaN5ntODYh2majI+Pc/bsWW7cuEEhX2BnZ4f79+9x5+6dPcfRQ2b47logaLfbvHy5SqVS5vHjx6Nix3y+wNjYGOPjhVFRaDgSZn5unl63x8rKCjs7paD4tBekI5SC3d1d7ty5w/Nnz+l0O997TZ1Oh3qtju/7KPuHb9JDIdBoNEYeGPPz86Qz6aB7JBMIp9xYYE8upaJY3KFUKtHt9vZFTxS+L5EqSOm02i2ePXvG119/Tb3e4NsiT2pfdXCv16PRaOD7h5Me02g0Gs1Bjr3gGKZRDMNgfHyc8+fPc+XKVaanpykWd3j06CF37tyhWCzS6/WO5B2xZVqEwoFtuRCBP0i71aZeb2DbNrFYlEQiOSi8HOfEiROcPXuWbDZLMpViYnKCyclJarXaKOUStHWqgUW3y/rG+qCF9M3D02zbJhwOEw6HAXAch0638z1Hvb8ZgRilSTY3N5meniYWi1HIF5iZmSGbzZHL5bBtm77jsLm5SaVS2ZvwCniuR6fTGX1PKUW/32dzc5NisTgQVq8v0LIsQqEQ4XAYIQxcNyh0ZV/7rkaj0WgOj2MtOIbTQm3bJplMcvbsWT744ANOnFig2+2OxMbqyiqe7w02uMNfVyQaoVAocGLhBIZpDIotd9jc3MBxHFqtJjs7OwhhkEolqVarJJNJ4vH46GNoGtbt9qjVavT7/dE4+kK+QCgUwvM8nJ7DgabPgQCLx+MUCgXGxvIIAdVqlZ3iTtDZ8iOvS6GCgthqlfX1dS5evEgymWQsP8bJk6fIZNJkB+ZkjWaDra1NdndrB0RRz+lR290dWbuHQiHS6fSoyDQwMXt9hdlMdq8+xDBptpqDCbetH3k1Go1Go/khHGvBgQhaPoOajfPcuHGDqakp2u02X331FV9//TUbGxtHKjYAUqkU586e489//jOWbVEsBhNtq5UKHdlFKTlqTW21WpTLgcfE4uLiKFpjDbpJer0u1WqFVqtFPB4nkUiwcGKB+bl5mo0mJafEfsUhhMC2bJaWlrh69SonF08CcP/BfW5+dZOd0g4/JiKwd+8UrWaLra1tms0msViMdDrD0tISqVSS1GA8/DDt0um0D9z3TqfDdnGbRqMRzHyJRJmZmeHEiUXq9Qa93ubB5YlgeN38wjzXrl3j/PkLGIZgZWWF27dvs7W19ZoPh0aj0WjePcdScAgRRDZMy6RQGOfs2SU++eQTCoUC5XKZ+/fvc/v2bUqDGoijFBsQpA08z8MOBRbntm0jZeBwurb2cuRJYZommUyG+fl5ZmZmsO0Qvhd0rtRqwcC0brfL9vY2q6urxGIxstksmXSGjz7+iGgsyvNngzkhvodhGCMH0GvXrnH61GmSqSSdToder0er3Ro0m/59G3S316VcLrO5uRm4jsYTzExPY9k2lmlSrpRZXl6mXqvjuu6B5zpOn0plz111YmKCeDzO9evXCYdDPH78OKhd6fdHbcBTU5Ncu3ads2eXyOVyuG4fp+cE5mf+m1MwGo1Go3m3HDvBMazZME2TfD7PuXNBGmV2ZpZSqcSjR4+4e/cbNjc3cV13VGx5lHR7Paq7VYrF4mimyOzsHB9//BGFQn40Lda2bSYmJlhcXGRiYgLbtmh3OpRL5VEnSL/fp1qt8ujRIzKZDLFojEgkwuLiIuFw0Ja6UyzSc3pYlkU6nWZ2ZpYTiyfIZDL4fuBsur29HcwyET9Oboh9nzzXo9lssLa2xtTUNKlUilg8NqhXcanXG6yurtJqt16rMfF9b9Ay/IR8Pj9KJc3Pz2FZJtlslmKxSKfTQQiDZDKYqLt4YpGx/BhCCHZ2dtna3qJSqbw2F+bAV41Go9G8M46h4Ai8KRKJBGfPnuXKlassLMzT7rS5d/8ed+7c5eXLl4OixJ9mjUFUosi9e/eJx+NMTk6SSiW5evUq8/Pzg9RBl1AoRC6XI51OEwqFcF2PnZ0iyyvLbG1t4zgOUira7Q6PHj0ilxsjHo8zMzNDPJ7g9OnTzM/P02oG49dNyyQWi5NIxDGEQd912d2tcv/+A1ZWVmg0Gm9c7/cqJN1THEi1Zx+/tHSWiYkJQiF7dO2VSpn19XUcx3mDp4ei1+vx/PlzCoUCqVSaEycWCIfCnDhxgunpadrtNp1OF8MQRKNRkokkhmkMzMdaPHr0iOXlZWq12tAeDDX8M5gPMyxI1Wg0Gs274dgJDsMwyOVyLC0t8cknv2FiYpxms8lXX33FN998w/Z2ca8r4nDms30nUgZD2b788gssy+TihYvMzM4Qi8WYmJhgfHx89FghjFGx5OrqKt988w337t2j3W4FLbwKPM+lUqlw8+ZNut0O169fH4iOONFodNSJMjgioGg2m6yvr/PgwQNu3fqaSqV8oCV46KsRrOG7wx5KBaZmENxT1/XY3t6iXC4xPzdHJJJDCKjVamxubFLbDVJCQrxuJCalpNFocPv27YGlepf5uXkSyQThcJhQKEw2u/ckIYL24q2tLZ48ecLNmzfZ2tqi3++P1jZ8oY2Bs+rwQ6PRaDTvhmMjOARBgWihUODcuXNcv36dQiFPtVLl4aOH3Llzl3K5hOP0jrxm41WUUvSdIBVy+/ZtKuUKM7MzFArjxONBSiSIaATzPhqNBtVqlZWVFTbWNyiXyyOxMbSe8DyPUmmHe/eC0esLCwsU8gWSqRSxWHTUKtrpdILCzO0iGxvrrK+tU6mUB9GGQWuq77G9vc3du3dJp9N02h1evlw78Jg3Xte+v0vfp16v8/DhQzzXIzc2Big2NjZ5sfyCnvOWuSz7JtQOU0Wt1v/f3t30NnFFARg+EyMh4VQklsomSLSwKxv+/39gBajNhkokJjhObaeK7caZjy7GNqZKqwRyoCTPs/doZryYV3fu3HsWT578FI8e/RgPH+5Et/sgOp3O+v7MZrMYDofR7/fj8OAwBsfLT5yXx6+qMo6Hx/HmzZt2PktZxtu3v7frf9hLBeBG3IngWI3mF0URu7u78fjx49jb22sfeL/9Gq9evYqj9++jLMuom2+/EFTTRFRNHdWijoODdr2Mg8OD6PV60e1ux4MH7ajEYrGI6XTa7qsymcTJH+3cjqqqLl1efD7/Kz58OIrJZBxHRx+i19ttt2v/YTuKoojz80VMp2frHXEnk0lMp9No6o+vG4qIKMsq+v3DWCzO4/79++1usZPJtR7QdVOvX42MRqPY3t6OpmkXBhuPR1GV1aVLi2/u7Ht+fh7D4TBOT/+MwWAQvV4vdnZ2lq9QOnFx0d6f6XQao9EoxuPxeqv5zTAqyzIGg0FUVRXdbjfquonT00nM57Oom8vXKQHgeoqnPz+99a+qVxNFi2Irnj//JV68eBHPnj2Lly9fxuvXr+Pw4DDKslw/VP/POp2tuNe5F1udrajrJqqqvDQw/luz3gW20+msP6Gt67qNritNlP10jsNqr5br29gErvn0v4or/x//fj2rTeWuej1N02y8TvFKBbi96rpajiR/nQffnRjhWA3DN00V7969i/l8Hvv7+9Hv92M8HrfrbHwHsRGx3Dq9uYiiWk52/KyTLiKKdun0pm7WcxlWx7vqIW9qjsPqOJ8e7jr/R3s9Ecv7s/Ep7XVWRjVvAyDPnQiOzWH4s7OzWCwWcTI8idl8FuXF113U60ut9gP58mGpYuNrjM/7/c24/DjXP6ePAfbPe3O1QwkNgEx3Ijg2lWUVZTmP2Wz+rU/ls91UHH0vkXVVt+16AG6TrW99AgDA7Sc4AIB0ggMASCc4AIB0ggMASCc4AIB0ggMASCc4AIB0ggMASCc4AIB0ggMASCc4AIB0ggMASCc4AIB0ggMASCc4AIB0ggMASCc4AIB0ggMASCc4AIB0ggMASCc4AIB0ggMASCc4AIB0ggMASCc4AIB0ggMASCc4AIB0ggMASCc4AIB0ggMASCc4AIB0ggMASCc4AIB0ggMASCc4AIB0ggMASCc4AIB0ggMASCc4AIB0ggMASCc4AIB0ggMASCc4AIB0ggMASCc4AIB0ggMASCc4AIB0ggMASCc4AIB0ggMASCc4AIB0ggMASCc4AIB0ggMASCc4AIB0ggMASCc4AIB0ggMASCc4AIB0ggMASCc4AIB0ggMASCc4AIB0ggMASCc4AIB0ggMASCc4AIB0fwOd6bNl4fEJ7AAAAABJRU5ErkJggg==;" vertex="1" parent="1">
          <mxGeometry x="130" y="260" width="540" height="191" as="geometry" />
        </mxCell>
      </root>
    </mxGraphModel>
  </diagram>
</mxfile>
